Coordinates
version=1
nRows=24
nColumns=24
inDegrees=yes

Units are S.I. units (second, meters, Newtons, ...)
If the header above contains a line with 'inDegrees', this indicates whether rotational values are in degrees (yes) or radians (no).

endheader
time	pelvis_tilt	pelvis_list	pelvis_rotation	pelvis_tx	pelvis_ty	pelvis_tz	hip_flexion_r	hip_adduction_r	hip_rotation_r	knee_angle_r	ankle_angle_r	subtalar_angle_r	mtp_angle_r	hip_flexion_l	hip_adduction_l	hip_rotation_l	knee_angle_l	ankle_angle_l	subtalar_angle_l	mtp_angle_l	lumbar_extension	lumbar_bending	lumbar_rotation
      2.26666700	     28.30495328	      1.22751694	    -14.80149588	     -0.71160065	      0.97807615	      0.01510848	    -19.96998365	    -15.30002626	      2.87837989	    -58.86957352	     -6.73748986	    -26.80450322	      5.10350180	    -21.90855864	      6.37784383	    -31.18197231	    -16.77372821	     -9.14699499	    -12.27342451	     39.07006233	    -28.81343954	     -2.63907887	     26.21826060
      2.27500000	     28.29761601	      0.87352777	    -14.41616480	     -0.70430404	      0.97900194	      0.01349935	    -19.07457756	    -14.71229034	      2.59243475	    -59.27022128	     -5.90660216	    -27.13340618	      3.64647870	    -22.59832269	      6.14425536	    -30.89142327	    -16.47648324	     -8.89962789	    -12.04616216	     39.21514892	    -29.06529904	     -1.81428649	     26.54461234
      2.28333300	     28.30593255	      0.52852182	    -13.90949531	     -0.69707283	      0.97995644	      0.01189584	    -18.26953303	    -14.09305918	      2.13479982	    -59.45408912	     -5.38950267	    -27.67893016	      3.23344968	    -23.27474080	      5.84685608	    -30.52646521	    -16.23090446	     -8.70921142	    -11.96356123	     39.39132504	    -29.28789891	     -1.05921036	     26.50172017
      2.29166700	     28.35038296	      0.13935600	    -13.39958198	     -0.68995067	      0.98089232	      0.01033028	    -17.54320833	    -13.42724319	      1.68137310	    -59.45387134	     -4.78707207	    -27.95418887	      2.66101031	    -23.98902286	      5.49339855	    -30.21898071	    -16.00150066	     -8.42888826	    -11.77882391	     39.50866677	    -29.57503700	     -0.24930443	     26.51928929
      2.30000000	     28.32865284	     -0.18145901	    -12.81906996	     -0.68285715	      0.98172234	      0.00877814	    -16.77730399	    -12.79970594	      1.11518431	    -59.29236179	     -4.23978180	    -28.09462432	      2.52609666	    -24.60663606	      5.14878835	    -29.77882385	    -15.76084352	     -8.22118421	    -11.62024107	     39.67072078	    -29.75694177	      0.53363908	     26.50936431
      2.30833300	     28.32130285	     -0.52806845	    -12.23016969	     -0.67584613	      0.98251675	      0.00727755	    -16.06037833	    -12.13898866	      0.53248779	    -58.95713141	     -3.73796012	    -28.21275369	      2.48661133	    -25.22775262	      4.75709435	    -29.38144086	    -15.54488942	     -7.98591774	    -11.45965445	     39.80593952	    -29.95263880	      1.32913563	     26.47003319
      2.31666700	     28.27817118	     -0.87497056	    -11.65022805	     -0.66885906	      0.98323245	      0.00584283	    -15.32973874	    -11.47397757	     -0.05488394	    -58.45853332	     -3.27341752	    -28.23103594	      2.58072512	    -25.79403319	      4.34423144	    -29.03608326	    -15.35296262	     -7.75861817	    -11.36735208	     39.93260107	    -30.08474473	      2.10327800	     26.39673589
      2.32500000	     28.31549089	     -1.18921243	    -11.00254101	     -0.66201077	      0.98392652	      0.00440037	    -14.72662220	    -10.84529337	     -0.78000326	    -57.80252070	     -2.84976829	    -28.40917077	      2.67642062	    -26.42958943	      3.93399043	    -28.57290215	    -15.14345543	     -7.51177971	    -11.09976247	     40.05885291	    -30.32362536	      2.90434385	     26.39270113
      2.33333300	     28.29523881	     -1.50047280	    -10.38185217	     -0.65517358	      0.98451900	      0.00302795	    -14.08233092	    -10.22279054	     -1.48675130	    -56.99471685	     -2.46307583	    -28.46873789	      2.88211775	    -26.98746046	      3.51109144	    -28.17945170	    -14.95744732	     -7.27474946	    -10.90744537	     40.15770239	    -30.47454124	      3.68146753	     26.36163952
      2.34166700	     28.27148777	     -1.79410228	     -9.75180110	     -0.64838461	      0.98503719	      0.00170225	    -13.46695751	     -9.62514494	     -2.24042211	    -56.03973844	     -2.11539090	    -28.50506111	      3.15547013	    -27.52744843	      3.08674467	    -27.78507180	    -14.77453068	     -7.03230603	    -10.72535555	     40.25808989	    -30.60921468	      4.43301165	     26.31695100
      2.35000000	     28.25094880	     -2.06684525	     -9.12441945	     -0.64164161	      0.98549624	      0.00042070	    -12.89293968	     -9.05731386	     -3.00923920	    -54.93092237	     -1.81744350	    -28.51336117	      3.52191611	    -28.05573841	      2.67061946	    -27.39454264	    -14.59876467	     -6.79809959	    -10.53451292	     40.34564555	    -30.73599614	      5.16676053	     26.24866472
      2.35833300	     28.28799900	     -2.36661788	     -8.49146846	     -0.63495307	      0.98594996	     -0.00080810	    -12.42717435	     -8.47998488	     -3.81048539	    -53.66583470	     -1.72838376	    -28.63178023	      4.36193630	    -28.64273489	      2.21722082	    -27.06445632	    -14.43334130	     -6.54436509	    -10.24563329	     40.28598248	    -30.90323512	      5.87120453	     26.07029087
      2.36666700	     28.25586939	     -2.58478653	     -7.87231738	     -0.62826396	      0.98628988	     -0.00197626	    -11.91630648	     -7.99329326	     -4.61508260	    -52.28273165	     -1.55218727	    -28.42698249	      5.10125685	    -29.13960093	      1.83378787	    -26.65154448	    -14.24175125	     -6.37388343	    -10.07697525	     40.38717590	    -30.98589232	      6.53589200	     25.96866196
      2.37500000	     28.26213678	     -2.81568342	     -7.27320736	     -0.62161175	      0.98657162	     -0.00305477	    -11.49482051	     -7.50622399	     -5.39867771	    -50.75947785	     -1.47249579	    -28.26887261	      6.30941238	    -29.65924108	      1.43072056	    -26.32402648	    -14.10308591	     -6.09638896	     -9.89348714	     40.41643003	    -31.08406071	      7.15041776	     25.75483841
      2.38333300	     28.20925316	     -3.00401826	     -6.69746833	     -0.61495002	      0.98676459	     -0.00406107	    -11.04594162	     -7.06580806	     -6.15248116	    -49.12397669	     -1.47615734	    -27.94493659	      7.64284530	    -30.11493420	      1.06949589	    -25.94187176	    -13.92890879	     -5.88111517	     -9.72993936	     40.47910405	    -31.10709741	      7.73300130	     25.57951158
      2.39166700	     28.24424673	     -3.19701809	     -6.14361322	     -0.60832402	      0.98694559	     -0.00500123	    -10.75926095	     -6.63706793	     -6.88172611	    -47.34708767	     -1.35165989	    -27.35071153	      8.69529356	    -30.65447210	      0.70750789	    -25.66832951	    -13.78275766	     -5.69784860	     -9.57567286	     40.57345747	    -31.22204319	      8.31735874	     25.46054618
      2.40000000	     28.21046612	     -3.36159912	     -5.59905102	     -0.60166818	      0.98701954	     -0.00586691	    -10.44219849	     -6.23498718	     -7.60614685	    -45.46850471	     -1.45566361	    -26.80944798	     10.26589735	    -31.11541187	      0.36024796	    -25.33783485	    -13.62577589	     -5.49629791	     -9.38940172	     40.64351837	    -31.24705307	      8.87833007	     25.34227258
      2.40833300	     28.27411925	     -3.52923561	     -5.09709497	     -0.59505663	      0.98707847	     -0.00662890	    -10.29267879	     -5.83857545	     -8.26373965	    -43.47404927	     -1.39088239	    -25.94877788	     11.38885280	    -31.68074223	      0.03126534	    -25.10691844	    -13.47566211	     -5.32141584	     -9.24608373	     40.73979376	    -31.37215197	      9.40747060	     25.26516684
      2.41666700	     28.24423905	     -3.64831678	     -4.59210887	     -0.58839894	      0.98700139	     -0.00733114	    -10.08944792	     -5.47465633	     -8.92001336	    -41.41444181	     -1.32331242	    -24.94361235	     12.25057825	    -32.13679900	     -0.27065180	    -24.77110176	    -13.31366043	     -5.13330871	     -9.10383805	     40.87982661	    -31.39166933	      9.95518388	     25.29352122
      2.42500000	     28.31197856	     -3.77868394	     -4.09292802	     -0.58170773	      0.98694805	     -0.00794008	    -10.04963886	     -5.12028721	     -9.62855585	    -39.25918910	     -1.67195998	    -24.26855218	     14.22779513	    -32.69248685	     -0.58988185	    -24.55196504	    -13.18441249	     -4.95232320	     -8.92800737	     40.90276656	    -31.46399644	     10.39161493	     25.06674455
      2.43333300	     28.38484376	     -3.85779791	     -3.62137719	     -0.57502059	      0.98681816	     -0.00846120	    -10.06364893	     -4.80706212	    -10.28848732	    -37.06989564	     -1.69804204	    -23.12548234	     15.06107762	    -33.24443352	     -0.85608811	    -24.32768422	    -13.05399519	     -4.84148272	     -8.81356619	     41.01179988	    -31.55322199	     10.83222775	     25.02069542
      2.44166700	     28.41368672	     -3.91426665	     -3.14392519	     -0.56827445	      0.98657621	     -0.00891805	    -10.07160582	     -4.50334526	    -10.97049774	    -34.86618241	     -1.76122550	    -21.98570551	     15.87291607	    -33.74845021	     -1.11728500	    -24.04602714	    -12.91807192	     -4.65072752	     -8.69048323	     41.15241660	    -31.57625837	     11.26651144	     24.98222725
      2.45000000	     28.50073674	     -3.90917891	     -2.59673958	     -0.56149610	      0.98635197	     -0.00926566	    -10.19880123	     -4.25484725	    -11.81563882	    -32.63453175	     -2.13292287	    -21.08564367	     17.48850096	    -34.27099622	     -1.39341509	    -23.73836491	    -12.86180426	     -4.49367487	     -8.56547233	     41.23807697	    -31.55748507	     11.46894278	     24.38849770
      2.45833300	     28.60847920	     -3.89207819	     -2.10713770	     -0.55472336	      0.98605650	     -0.00952550	    -10.36871905	     -4.01473809	    -12.58167866	    -30.44326071	     -2.26350110	    -19.83704602	     18.28886327	    -34.82571616	     -1.63079036	    -23.47325807	    -12.79273661	     -4.33881727	     -8.46530559	     41.34657566	    -31.59290531	     11.71433201	     24.06198826
